<svg id="visual" viewBox="0 0 900 675" width="900" height="675" xmlns="http://www.w3.org/2000/svg" xmlns:xlink="http://www.w3.org/1999/xlink" version="1.1"><g transform="translate(447.36104870001816 363.44731452130634)"><path d="M168.8 -241.9C213.1 -200.3 239.2 -143.2 260.2 -83.4C281.2 -23.6 297 39 281.5 92.9C266 146.8 219.1 191.9 167 218.8C114.8 245.7 57.4 254.3 -3.1 258.7C-63.7 263 -127.4 263 -167.5 232.2C-207.6 201.4 -224.2 139.8 -244.3 79.1C-264.5 18.4 -288.2 -41.5 -281.2 -100C-274.1 -158.6 -236.2 -215.8 -184.2 -254.9C-132.3 -294 -66.1 -315 -1.9 -312.4C62.3 -309.8 124.6 -283.5 168.8 -241.9" fill="#BB004B"></path></g></svg>